<?xml version="1.0"?>
<svg xmlns="http://www.w3.org/2000/svg" viewBox="0 0 50 50">
    <path style="line-height:normal;text-indent:0;text-align:start;text-decoration-line:none;text-decoration-style:solid;text-decoration-color:#000;text-transform:none;block-progression:tb;isolation:auto;mix-blend-mode:normal" d="M 17 4 C 13.698136 4 11 6.6981361 11 10 C 11 11.986364 11.979598 13.75037 13.476562 14.84375 C 12.004021 15.57661 10.779162 16.736969 9.9902344 18.179688 C 9.5106158 18.066099 9.0133132 18 8.5 18 C 4.9219938 18 2 20.921994 2 24.5 C 2 26.764699 3.1728005 28.763265 4.9394531 29.927734 C 2.0378874 31.25784 0 34.145523 0 37.490234 L 0 41.623047 A 1.0001 1.0001 0 0 0 0.40820312 42.429688 C 0.40820312 42.429688 1.0837159 42.896747 2.359375 43.271484 C 3.6350341 43.646222 5.6059 44 8.5 44 C 11.394159 44 13.364908 43.644558 14.640625 43.269531 C 14.776457 43.2296 14.877869 43.187821 15 43.146484 L 15 43.392578 C 15 43.715578 15.156922 44.019031 15.419922 44.207031 C 15.676922 44.390031 18.128 46 25 46 C 26.627 46 28.101266 45.89875 29.447266 45.71875 C 29.119266 45.11475 28.850906 44.4745 28.628906 43.8125 C 27.521906 43.9345 26.314 44 25 44 C 20.289 44 17.891 43.189969 17 42.792969 L 17 41.658203 A 1.0001 1.0001 0 0 0 17 41.621094 L 17 38.570312 C 17 34.395313 20.589 31 25 31 C 26.985 31 28.861594 31.720359 30.308594 32.943359 C 30.701594 32.404359 31.132422 31.895687 31.607422 31.429688 C 30.804673 30.749686 29.893632 30.202265 28.916016 29.794922 C 30.774063 28.533846 32 26.405346 32 24 C 32 21.44352 30.611507 19.206218 28.554688 17.984375 C 29.651424 16.769954 31.22828 16 33 16 C 35.201274 16 37.110101 17.181679 38.154297 18.9375 C 36.268237 20.076565 35 22.140637 35 24.5 C 35 26.028 35.533922 27.433922 36.419922 28.544922 C 37.177922 28.307922 37.96725 28.1445 38.78125 28.0625 C 37.70625 27.2385 37 25.956 37 24.5 C 37 22.019 39.019 20 41.5 20 C 43.981 20 46 22.019 46 24.5 C 46 26.266 44.968375 27.781578 43.484375 28.517578 C 44.261375 28.753578 45.008937 29.063359 45.710938 29.443359 C 47.109938 28.250359 48 26.478 48 24.5 C 48 20.916 45.084 18 41.5 18 C 40.986021 18 40.487685 18.066376 40.007812 18.179688 C 39.199083 16.699098 37.950294 15.494723 36.421875 14.769531 C 37.863151 13.671387 38.800781 11.942552 38.800781 10 C 38.800781 6.6981361 36.102645 4 32.800781 4 C 29.498917 4 26.800781 6.6981361 26.800781 10 C 26.800781 12.017759 27.810436 13.807597 29.347656 14.896484 C 28.272026 15.450679 27.342108 16.238564 26.619141 17.197266 C 26.098563 17.072951 25.557612 17 25 17 C 24.442388 17 23.901437 17.072951 23.380859 17.197266 C 22.630781 16.202947 21.655804 15.394368 20.529297 14.837891 C 22.02252 13.744138 23 11.983435 23 10 C 23 6.6981361 20.301864 4 17 4 z M 17 6 C 19.220984 6 21 7.7790164 21 10 C 21 12.220984 19.220984 14 17 14 C 14.779016 14 13 12.220984 13 10 C 13 7.7790164 14.779016 6 17 6 z M 32.800781 6 C 35.021765 6 36.800781 7.7790164 36.800781 10 C 36.800781 12.220984 35.021765 14 32.800781 14 C 30.579798 14 28.800781 12.220984 28.800781 10 C 28.800781 7.7790164 30.579798 6 32.800781 6 z M 17 16 C 18.771451 16 20.348247 16.770244 21.445312 17.984375 C 19.388493 19.206218 18 21.44352 18 24 C 18 26.394855 19.216111 28.514237 21.060547 29.777344 C 18.991514 30.629632 17.27897 32.127759 16.208984 34.009766 C 15.360736 32.214298 13.884006 30.763625 12.060547 29.927734 C 13.8272 28.763265 15 26.764699 15 24.5 C 15 22.144583 13.729875 20.079833 11.84375 18.939453 C 12.888118 17.181865 14.79717 16 17 16 z M 25 19 C 27.773268 19 30 21.226732 30 24 C 30 26.773268 27.773268 29 25 29 C 22.226732 29 20 26.773268 20 24 C 20 21.226732 22.226732 19 25 19 z M 8.5 20 C 10.997126 20 13 22.002874 13 24.5 C 13 26.997126 10.997126 29 8.5 29 C 6.002874 29 4 26.997126 4 24.5 C 4 22.002874 6.002874 20 8.5 20 z M 40 30 C 34.488997 30 30 34.488997 30 40 C 30 45.511003 34.488997 50 40 50 C 45.511003 50 50 45.511003 50 40 C 50 34.488997 45.511003 30 40 30 z M 8.5 31.142578 C 12.090697 31.142578 15 34.006027 15 37.490234 L 15 40.980469 C 14.852914 41.066249 14.818427 41.133935 14.078125 41.351562 C 13.010092 41.665537 11.230841 42 8.5 42 C 5.7691 42 3.9899659 41.665326 2.921875 41.351562 C 2.1815335 41.13408 2.1470995 41.066191 2 40.980469 L 2 37.490234 C 2 34.006027 4.909303 31.142578 8.5 31.142578 z M 40 32 C 44.430123 32 48 35.569877 48 40 C 48 44.430123 44.430123 48 40 48 C 35.569877 48 32 44.430123 32 40 C 32 35.569877 35.569877 32 40 32 z M 44.240234 35.349609 L 38.849609 41.638672 L 35.599609 39.199219 L 34.400391 40.800781 L 39.150391 44.361328 L 45.759766 36.650391 L 44.240234 35.349609 z"/>
</svg>
